<svg width="64" height="64" viewBox="0 0 64 64" fill="none" xmlns="http://www.w3.org/2000/svg">
<path d="M60.6514 46.2666C62.8735 41.812 64 37.0122 64 32C64 23.4526 60.6714 15.4165 54.6274 9.37256C48.5835 3.32861 40.5474 0 32 0C23.4526 0 15.4165 3.32861 9.37256 9.37256C3.32861 15.4165 0 23.4526 0 32C0 37.0122 1.12646 41.812 3.34814 46.2661C4.98535 49.5474 7.21191 52.5557 9.86914 55.1064C9.43164 55.3008 9.12598 55.7388 9.12598 56.2485V58.6514C9.12598 61.6006 11.4829 64 14.3804 64H49.6196C52.5171 64 54.874 61.6006 54.874 58.6514V56.2485C54.874 55.7388 54.5684 55.3008 54.1309 55.1064C56.7881 52.5562 59.0146 49.5479 60.6514 46.2666ZM9.68604 51.3057C10.7837 50.6431 11.9517 50.1323 13.1787 49.7778V54.7168C11.9102 53.6665 10.7451 52.5244 9.68604 51.3057ZM8.13965 14.6743C10.1465 15.9331 12.3672 16.7578 14.6958 17.1104C14.6948 17.1807 14.6934 17.251 14.6934 17.3213V30.75H2.52832C2.7793 24.7603 4.82422 19.2271 8.13965 14.6743ZM17.1934 17.3213C17.1934 17.3159 17.1934 17.3105 17.1934 17.3052C17.2339 17.3057 17.2744 17.3076 17.3149 17.3076H30.75V30.75H17.9429C17.688 30.75 17.4375 30.7705 17.1934 30.8096V17.3213ZM33.25 2.56787C39.9927 3.13428 45.4639 8.23779 46.5923 14.8076H33.25V2.56787ZM30.75 2.56787V14.8076H17.4077C18.5361 8.23779 24.0073 3.13428 30.75 2.56787ZM33.25 17.3076H46.6855C46.7261 17.3076 46.7661 17.3057 46.8066 17.3052V17.3213V30.8096C46.562 30.7705 46.312 30.75 46.0571 30.75H33.25V17.3076ZM61.4717 30.75H49.3066V17.3213C49.3066 17.251 49.3047 17.1807 49.3042 17.1104C51.6328 16.7583 53.8535 15.9336 55.8608 14.6743C59.1758 19.2275 61.2207 24.7603 61.4717 30.75ZM50.8213 54.7168V49.7773C52.0479 50.1323 53.2158 50.6431 54.3135 51.3062C53.2549 52.5244 52.0894 53.6665 50.8213 54.7168ZM55.8828 49.3364C54.314 48.3481 52.6182 47.6294 50.8213 47.1904V35.5142C50.8213 34.6953 50.6133 33.9238 50.248 33.25H61.4712C61.2275 39.1309 59.2695 44.6895 55.8828 49.3364ZM54.2974 12.7046C52.6929 13.6694 50.9336 14.312 49.0942 14.6118C48.5215 10.9839 46.8169 7.72754 44.3555 5.21582C48.1812 6.98779 51.5674 9.5542 54.2974 12.7046ZM19.6445 5.21582C17.1831 7.72754 15.479 10.9839 14.9058 14.6118C13.0664 14.3115 11.3076 13.6689 9.70312 12.7041C12.4331 9.5542 15.8188 6.98779 19.6445 5.21582ZM2.52881 33.25H13.752C13.3862 33.9238 13.1787 34.6953 13.1787 35.5142V47.1895C11.3813 47.6289 9.68555 48.3481 8.11719 49.3359C4.73047 44.689 2.77246 39.1309 2.52881 33.25ZM52.374 58.6514C52.374 60.1953 51.1123 61.5 49.6196 61.5H14.3804C12.8877 61.5 11.626 60.1953 11.626 58.6514V57.4985H25.4375C26.1279 57.4985 26.6875 56.939 26.6875 56.2485C26.6875 55.5581 26.1279 54.9985 25.4375 54.9985H15.6787V35.5142C15.6787 34.2656 16.6943 33.25 17.9429 33.25H46.0571C47.3057 33.25 48.3213 34.2656 48.3213 35.5142V48.2178V48.2354V54.9985H39.2197C38.5293 54.9985 37.9697 55.5581 37.9697 56.2485C37.9697 56.939 38.5293 57.4985 39.2197 57.4985H50.9053C50.9077 57.4985 50.9097 57.499 50.9121 57.499C50.915 57.499 50.918 57.4985 50.9214 57.4985H52.374V58.6514Z" fill="#1D6693"/>
</svg>
